<?xml version="1.0" encoding="UTF-8" standalone="no"?>
<!DOCTYPE svg PUBLIC "-//W3C//DTD SVG 1.1//EN"
 "http://www.w3.org/Graphics/SVG/1.1/DTD/svg11.dtd">
<!-- Generated by graphviz version 2.28.0 (20110507.0327)
 -->
<!-- Title: G Pages: 1 -->
<svg width="596pt" height="780pt"
 viewBox="0.00 0.00 596.00 780.00" xmlns="http://www.w3.org/2000/svg" xmlns:xlink="http://www.w3.org/1999/xlink">
<g id="graph1" class="graph" transform="scale(1 1) rotate(0) translate(4 776)">
<title>G</title>
<polygon fill="white" stroke="white" points="-4,5 -4,-776 593,-776 593,5 -4,5"/>
<g id="graph2" class="cluster"><title>cluster_MischiefCollective</title>
<polyline fill="none" stroke="gray" points="364,-8 568,-8 "/>
<path fill="none" stroke="gray" d="M568,-8C574,-8 580,-14 580,-20"/>
<polyline fill="none" stroke="gray" points="580,-20 580,-752 "/>
<path fill="none" stroke="gray" d="M580,-752C580,-758 574,-764 568,-764"/>
<polyline fill="none" stroke="gray" points="568,-764 364,-764 "/>
<path fill="none" stroke="gray" d="M364,-764C358,-764 352,-758 352,-752"/>
<polyline fill="none" stroke="gray" points="352,-752 352,-20 "/>
<path fill="none" stroke="gray" d="M352,-20C352,-14 358,-8 364,-8"/>
<text text-anchor="middle" x="466" y="-751.2" font-family="Times New Roman,serif" font-size="11.00" fill="gray">MischiefCollective</text>
</g>
<g id="graph3" class="cluster"><title>cluster_MischiefCollective\ColorJizz</title>
<polyline fill="none" stroke="gray" points="372,-16 560,-16 "/>
<path fill="none" stroke="gray" d="M560,-16C566,-16 572,-22 572,-28"/>
<polyline fill="none" stroke="gray" points="572,-28 572,-724 "/>
<path fill="none" stroke="gray" d="M572,-724C572,-730 566,-736 560,-736"/>
<polyline fill="none" stroke="gray" points="560,-736 372,-736 "/>
<path fill="none" stroke="gray" d="M372,-736C366,-736 360,-730 360,-724"/>
<polyline fill="none" stroke="gray" points="360,-724 360,-28 "/>
<path fill="none" stroke="gray" d="M360,-28C360,-22 366,-16 372,-16"/>
<text text-anchor="middle" x="466" y="-723.2" font-family="Times New Roman,serif" font-size="11.00" fill="gray">ColorJizz</text>
</g>
<g id="graph4" class="cluster"><title>cluster_MischiefCollective\ColorJizz\Exceptions</title>
<polyline fill="none" stroke="gray" points="380,-636 552,-636 "/>
<path fill="none" stroke="gray" d="M552,-636C558,-636 564,-642 564,-648"/>
<polyline fill="none" stroke="gray" points="564,-648 564,-696 "/>
<path fill="none" stroke="gray" d="M564,-696C564,-702 558,-708 552,-708"/>
<polyline fill="none" stroke="gray" points="552,-708 380,-708 "/>
<path fill="none" stroke="gray" d="M380,-708C374,-708 368,-702 368,-696"/>
<polyline fill="none" stroke="gray" points="368,-696 368,-648 "/>
<path fill="none" stroke="gray" d="M368,-648C368,-642 374,-636 380,-636"/>
<text text-anchor="middle" x="466" y="-695.2" font-family="Times New Roman,serif" font-size="11.00" fill="gray">Exceptions</text>
</g>
<g id="graph5" class="cluster"><title>cluster_MischiefCollective\ColorJizz\Formats</title>
<polyline fill="none" stroke="gray" points="441,-124 491,-124 "/>
<path fill="none" stroke="gray" d="M491,-124C497,-124 503,-130 503,-136"/>
<polyline fill="none" stroke="gray" points="503,-136 503,-616 "/>
<path fill="none" stroke="gray" d="M503,-616C503,-622 497,-628 491,-628"/>
<polyline fill="none" stroke="gray" points="491,-628 441,-628 "/>
<path fill="none" stroke="gray" d="M441,-628C435,-628 429,-622 429,-616"/>
<polyline fill="none" stroke="gray" points="429,-616 429,-136 "/>
<path fill="none" stroke="gray" d="M429,-136C429,-130 435,-124 441,-124"/>
<text text-anchor="middle" x="466" y="-615.2" font-family="Times New Roman,serif" font-size="11.00" fill="gray">Formats</text>
</g>
<!-- \\MischiefCollective\\ColorJizz\\Exceptions\\InvalidArgumentException -->
<g id="node4" class="node"><title>\\MischiefCollective\\ColorJizz\\Exceptions\\InvalidArgumentException</title>
<a xlink:href="Exceptions.InvalidArgumentException.html" xlink:title="InvalidArgumentException" target="_parent">
<polygon fill="none" stroke="black" points="555.5,-680 376.5,-680 376.5,-644 555.5,-644 555.5,-680"/>
<text text-anchor="middle" x="466" y="-659.2" font-family="Courier,monospace" font-size="11.00">InvalidArgumentException</text>
</a>
</g>
<!-- Exception -->
<g id="node20" class="node"><title>Exception</title>
<ellipse fill="none" stroke="black" cx="152" cy="-662" rx="47.3916" ry="18"/>
<text text-anchor="middle" x="152" y="-658.3" font-family="Times New Roman,serif" font-size="14.00" fill="gray">Exception</text>
</g>
<!-- \\MischiefCollective\\ColorJizz\\Exceptions\\InvalidArgumentException&#45;&gt;Exception -->
<g id="edge8" class="edge"><title>\\MischiefCollective\\ColorJizz\\Exceptions\\InvalidArgumentException&#45;&gt;Exception</title>
<path fill="none" stroke="black" d="M376.428,-662C322.998,-662 256.502,-662 210.003,-662"/>
<polygon fill="none" stroke="black" points="209.81,-658.5 199.81,-662 209.81,-665.5 209.81,-658.5"/>
</g>
<!-- \\MischiefCollective\\ColorJizz\\Formats\\CIELab -->
<g id="node6" class="node"><title>\\MischiefCollective\\ColorJizz\\Formats\\CIELab</title>
<a xlink:href="Formats.CIELab.html" xlink:title="CIELab" target="_parent">
<polygon fill="none" stroke="black" points="494.5,-600 437.5,-600 437.5,-564 494.5,-564 494.5,-600"/>
<text text-anchor="middle" x="466" y="-579.2" font-family="Courier,monospace" font-size="11.00">CIELab</text>
</a>
</g>
<!-- MischiefCollective\\ColorJizz\\ColorJizz -->
<g id="node22" class="node"><title>MischiefCollective\\ColorJizz\\ColorJizz</title>
<ellipse fill="none" stroke="black" cx="152" cy="-366" rx="151.373" ry="18"/>
<text text-anchor="middle" x="152" y="-362.3" font-family="Times New Roman,serif" font-size="14.00" fill="gray">MischiefCollective\ColorJizz\ColorJizz</text>
</g>
<!-- \\MischiefCollective\\ColorJizz\\Formats\\CIELab&#45;&gt;MischiefCollective\\ColorJizz\\ColorJizz -->
<g id="edge10" class="edge"><title>\\MischiefCollective\\ColorJizz\\Formats\\CIELab&#45;&gt;MischiefCollective\\ColorJizz\\ColorJizz</title>
<path fill="none" stroke="black" d="M437.076,-579.43C413.275,-576.308 378.771,-569.524 352,-555 274.617,-513.018 205.271,-433.18 172.673,-392.003"/>
<polygon fill="none" stroke="black" points="175.385,-389.789 166.468,-384.068 169.87,-394.101 175.385,-389.789"/>
</g>
<!-- \\MischiefCollective\\ColorJizz\\Formats\\CIELCh -->
<g id="node7" class="node"><title>\\MischiefCollective\\ColorJizz\\Formats\\CIELCh</title>
<a xlink:href="Formats.CIELCh.html" xlink:title="CIELCh" target="_parent">
<polygon fill="none" stroke="black" points="494.5,-546 437.5,-546 437.5,-510 494.5,-510 494.5,-546"/>
<text text-anchor="middle" x="466" y="-525.2" font-family="Courier,monospace" font-size="11.00">CIELCh</text>
</a>
</g>
<!-- \\MischiefCollective\\ColorJizz\\Formats\\CIELCh&#45;&gt;MischiefCollective\\ColorJizz\\ColorJizz -->
<g id="edge12" class="edge"><title>\\MischiefCollective\\ColorJizz\\Formats\\CIELCh&#45;&gt;MischiefCollective\\ColorJizz\\ColorJizz</title>
<path fill="none" stroke="black" d="M437.162,-524.225C413.721,-520.379 379.683,-513.207 352,-501 286.122,-471.951 218.693,-420.775 181.699,-390.467"/>
<polygon fill="none" stroke="black" points="183.778,-387.644 173.842,-383.967 179.316,-393.038 183.778,-387.644"/>
</g>
<!-- \\MischiefCollective\\ColorJizz\\Formats\\CMY -->
<g id="node8" class="node"><title>\\MischiefCollective\\ColorJizz\\Formats\\CMY</title>
<a xlink:href="Formats.CMY.html" xlink:title="CMY" target="_parent">
<polygon fill="none" stroke="black" points="493,-492 439,-492 439,-456 493,-456 493,-492"/>
<text text-anchor="middle" x="466" y="-471.2" font-family="Courier,monospace" font-size="11.00">CMY</text>
</a>
</g>
<!-- \\MischiefCollective\\ColorJizz\\Formats\\CMY&#45;&gt;MischiefCollective\\ColorJizz\\ColorJizz -->
<g id="edge14" class="edge"><title>\\MischiefCollective\\ColorJizz\\Formats\\CMY&#45;&gt;MischiefCollective\\ColorJizz\\ColorJizz</title>
<path fill="none" stroke="black" d="M438.658,-468.891C415.556,-464.131 381.192,-456.369 352,-447 298.898,-429.958 239.944,-405.193 200.087,-387.539"/>
<polygon fill="none" stroke="black" points="201.441,-384.311 190.882,-383.438 198.592,-390.705 201.441,-384.311"/>
</g>
<!-- \\MischiefCollective\\ColorJizz\\Formats\\CMYK -->
<g id="node9" class="node"><title>\\MischiefCollective\\ColorJizz\\Formats\\CMYK</title>
<a xlink:href="Formats.CMYK.html" xlink:title="CMYK" target="_parent">
<polygon fill="none" stroke="black" points="493,-438 439,-438 439,-402 493,-402 493,-438"/>
<text text-anchor="middle" x="466" y="-417.2" font-family="Courier,monospace" font-size="11.00">CMYK</text>
</a>
</g>
<!-- \\MischiefCollective\\ColorJizz\\Formats\\CMYK&#45;&gt;MischiefCollective\\ColorJizz\\ColorJizz -->
<g id="edge16" class="edge"><title>\\MischiefCollective\\ColorJizz\\Formats\\CMYK&#45;&gt;MischiefCollective\\ColorJizz\\ColorJizz</title>
<path fill="none" stroke="black" d="M438.936,-415.489C397.492,-408.316 314.517,-393.955 248.578,-382.542"/>
<polygon fill="none" stroke="black" points="249.016,-379.066 238.566,-380.809 247.822,-385.964 249.016,-379.066"/>
</g>
<!-- \\MischiefCollective\\ColorJizz\\Formats\\Hex -->
<g id="node10" class="node"><title>\\MischiefCollective\\ColorJizz\\Formats\\Hex</title>
<a xlink:href="Formats.Hex.html" xlink:title="Hex" target="_parent">
<polygon fill="none" stroke="black" points="493,-384 439,-384 439,-348 493,-348 493,-384"/>
<text text-anchor="middle" x="466" y="-363.2" font-family="Courier,monospace" font-size="11.00">Hex</text>
</a>
</g>
<!-- \\MischiefCollective\\ColorJizz\\Formats\\Hex&#45;&gt;MischiefCollective\\ColorJizz\\ColorJizz -->
<g id="edge18" class="edge"><title>\\MischiefCollective\\ColorJizz\\Formats\\Hex&#45;&gt;MischiefCollective\\ColorJizz\\ColorJizz</title>
<path fill="none" stroke="black" d="M438.936,-366C410.436,-366 362.296,-366 313.563,-366"/>
<polygon fill="none" stroke="black" points="313.488,-362.5 303.488,-366 313.488,-369.5 313.488,-362.5"/>
</g>
<!-- \\MischiefCollective\\ColorJizz\\Formats\\HSV -->
<g id="node11" class="node"><title>\\MischiefCollective\\ColorJizz\\Formats\\HSV</title>
<a xlink:href="Formats.HSV.html" xlink:title="HSV" target="_parent">
<polygon fill="none" stroke="black" points="493,-330 439,-330 439,-294 493,-294 493,-330"/>
<text text-anchor="middle" x="466" y="-309.2" font-family="Courier,monospace" font-size="11.00">HSV</text>
</a>
</g>
<!-- \\MischiefCollective\\ColorJizz\\Formats\\HSV&#45;&gt;MischiefCollective\\ColorJizz\\ColorJizz -->
<g id="edge20" class="edge"><title>\\MischiefCollective\\ColorJizz\\Formats\\HSV&#45;&gt;MischiefCollective\\ColorJizz\\ColorJizz</title>
<path fill="none" stroke="black" d="M438.936,-316.511C397.492,-323.684 314.517,-338.045 248.578,-349.458"/>
<polygon fill="none" stroke="black" points="247.822,-346.036 238.566,-351.191 249.016,-352.934 247.822,-346.036"/>
</g>
<!-- \\MischiefCollective\\ColorJizz\\Formats\\RGB -->
<g id="node12" class="node"><title>\\MischiefCollective\\ColorJizz\\Formats\\RGB</title>
<a xlink:href="Formats.RGB.html" xlink:title="RGB" target="_parent">
<polygon fill="none" stroke="black" points="493,-276 439,-276 439,-240 493,-240 493,-276"/>
<text text-anchor="middle" x="466" y="-255.2" font-family="Courier,monospace" font-size="11.00">RGB</text>
</a>
</g>
<!-- \\MischiefCollective\\ColorJizz\\Formats\\RGB&#45;&gt;MischiefCollective\\ColorJizz\\ColorJizz -->
<g id="edge22" class="edge"><title>\\MischiefCollective\\ColorJizz\\Formats\\RGB&#45;&gt;MischiefCollective\\ColorJizz\\ColorJizz</title>
<path fill="none" stroke="black" d="M438.658,-263.109C415.556,-267.869 381.192,-275.631 352,-285 298.898,-302.042 239.944,-326.807 200.087,-344.461"/>
<polygon fill="none" stroke="black" points="198.592,-341.295 190.882,-348.562 201.441,-347.689 198.592,-341.295"/>
</g>
<!-- \\MischiefCollective\\ColorJizz\\Formats\\XYZ -->
<g id="node13" class="node"><title>\\MischiefCollective\\ColorJizz\\Formats\\XYZ</title>
<a xlink:href="Formats.XYZ.html" xlink:title="XYZ" target="_parent">
<polygon fill="none" stroke="black" points="493,-222 439,-222 439,-186 493,-186 493,-222"/>
<text text-anchor="middle" x="466" y="-201.2" font-family="Courier,monospace" font-size="11.00">XYZ</text>
</a>
</g>
<!-- \\MischiefCollective\\ColorJizz\\Formats\\XYZ&#45;&gt;MischiefCollective\\ColorJizz\\ColorJizz -->
<g id="edge24" class="edge"><title>\\MischiefCollective\\ColorJizz\\Formats\\XYZ&#45;&gt;MischiefCollective\\ColorJizz\\ColorJizz</title>
<path fill="none" stroke="black" d="M438.555,-207.548C415.085,-211.336 380.237,-218.549 352,-231 286.122,-260.049 218.693,-311.225 181.699,-341.533"/>
<polygon fill="none" stroke="black" points="179.316,-338.962 173.842,-348.033 183.778,-344.356 179.316,-338.962"/>
</g>
<!-- \\MischiefCollective\\ColorJizz\\Formats\\Yxy -->
<g id="node14" class="node"><title>\\MischiefCollective\\ColorJizz\\Formats\\Yxy</title>
<a xlink:href="Formats.Yxy.html" xlink:title="Yxy" target="_parent">
<polygon fill="none" stroke="black" points="493,-168 439,-168 439,-132 493,-132 493,-168"/>
<text text-anchor="middle" x="466" y="-147.2" font-family="Courier,monospace" font-size="11.00">Yxy</text>
</a>
</g>
<!-- \\MischiefCollective\\ColorJizz\\Formats\\Yxy&#45;&gt;MischiefCollective\\ColorJizz\\ColorJizz -->
<g id="edge26" class="edge"><title>\\MischiefCollective\\ColorJizz\\Formats\\Yxy&#45;&gt;MischiefCollective\\ColorJizz\\ColorJizz</title>
<path fill="none" stroke="black" d="M438.944,-152.33C415.109,-155.338 379.48,-162.091 352,-177 274.617,-218.982 205.271,-298.82 172.673,-339.997"/>
<polygon fill="none" stroke="black" points="169.87,-337.899 166.468,-347.932 175.385,-342.211 169.87,-337.899"/>
</g>
<!-- \\MischiefCollective\\ColorJizz\\Autoloader -->
<g id="node15" class="node"><title>\\MischiefCollective\\ColorJizz\\Autoloader</title>
<a xlink:href="Autoloader.html" xlink:title="Autoloader" target="_parent">
<polygon fill="none" stroke="black" points="508,-114 424,-114 424,-78 508,-78 508,-114"/>
<text text-anchor="middle" x="466" y="-93.2" font-family="Courier,monospace" font-size="11.00">Autoloader</text>
</a>
</g>
<!-- \\MischiefCollective\\ColorJizz\\ColorJizz -->
<g id="node16" class="node"><title>\\MischiefCollective\\ColorJizz\\ColorJizz</title>
<a xlink:href="ColorJizz.html" xlink:title="ColorJizz" target="_parent">
<polygon fill="none" stroke="black" points="504.5,-60 427.5,-60 427.5,-24 504.5,-24 504.5,-60"/>
<text text-anchor="middle" x="466" y="-39.2" font-family="Courier,monospace" font-size="11.00">ColorJizz</text>
</a>
</g>
</g>
</svg>
